<?xml version="1.0" encoding="UTF-8"?>
<svg width="413px" height="101px" viewBox="0 0 413 101" version="1.1" xmlns="http://www.w3.org/2000/svg" xmlns:xlink="http://www.w3.org/1999/xlink">
    <title>brand-only</title>
    <defs>
        <filter x="-12.3%" y="-12.3%" width="124.6%" height="124.6%" filterUnits="objectBoundingBox" id="filter-1">
            <feOffset dx="0" dy="2" in="SourceAlpha" result="shadowOffsetOuter1"></feOffset>
            <feGaussianBlur stdDeviation="1" in="shadowOffsetOuter1" result="shadowBlurOuter1"></feGaussianBlur>
            <feColorMatrix values="0 0 0 0 0   0 0 0 0 0   0 0 0 0 0  0 0 0 0.5 0" type="matrix" in="shadowBlurOuter1" result="shadowMatrixOuter1"></feColorMatrix>
            <feMerge>
                <feMergeNode in="shadowMatrixOuter1"></feMergeNode>
                <feMergeNode in="SourceGraphic"></feMergeNode>
            </feMerge>
        </filter>
        <path d="M118.856402,92.769697 C144.150454,92.769697 159.02242,77.0686869 159.02242,50.2949495 L159.02242,50.1777778 C159.02242,23.4626263 144.033352,8.23030303 118.856402,8.23030303 L88,8.23030303 L88,92.769697 L118.856402,92.769697 Z M117.275523,79.9979798 L103.10617,79.9979798 L103.10617,21.0020202 L117.275523,21.0020202 C134.079674,21.0020202 143.623495,31.3717172 143.623495,50.2363636 L143.623495,50.3535354 C143.623495,69.6282828 134.255327,79.9979798 117.275523,79.9979798 Z M184.140819,92.769697 L184.140819,56.3878788 C184.140819,47.6585859 189.117658,42.3272727 197.373356,42.3272727 C199.8325,42.3272727 202.057439,42.6787879 203.287011,43.1474747 L203.287011,29.9656566 C202.174541,29.6727273 200.476561,29.379798 198.661479,29.379798 C191.342598,29.379798 185.89735,33.7737374 184.023717,41.0383838 L183.730962,41.0383838 L183.730962,30.6686869 L169.561608,30.6686869 L169.561608,92.769697 L184.140819,92.769697 Z M227.761349,93.8242424 C235.958495,93.8242424 242.867519,89.7232323 246.439133,83.220202 L246.790439,83.220202 L246.790439,92.769697 L261.36965,92.769697 L261.36965,50.0606061 C261.36965,37.5818182 251.357421,29.379798 235.841393,29.379798 C220.091162,29.379798 210.547341,37.640404 209.669075,48.6545455 L209.610524,49.3575758 L223.135816,49.3575758 L223.252918,48.830303 C224.189735,44.2606061 228.40541,41.0383838 235.314434,41.0383838 C242.691866,41.0383838 246.790439,44.8464646 246.790439,51.1151515 L246.790439,55.3919192 L230.571799,56.3878788 C215.52418,57.3252525 206.975727,63.9454545 206.975727,74.959596 L206.975727,75.0767677 C206.975727,86.1494949 215.348527,93.8242424 227.761349,93.8242424 Z M232.094126,82.6929293 C225.712062,82.6929293 221.496387,79.5878788 221.496387,74.4909091 L221.496387,74.4323232 C221.496387,69.5111111 225.419307,66.4060606 232.621086,65.9373737 L246.790439,65.0585859 L246.790439,69.7454545 C246.790439,77.1272727 240.466926,82.6929293 232.094126,82.6929293 Z M291.699092,92.769697 L291.699092,41.9171717 L303.87771,41.9171717 L303.87771,30.6686869 L291.406337,30.6686869 L291.406337,25.1616162 C291.406337,20.1232323 294.041134,17.4868687 299.720586,17.4868687 C301.301464,17.4868687 302.940893,17.6040404 304.111914,17.779798 L304.111914,7.58585859 C302.296832,7.23434343 299.193626,7 296.324625,7 C282.857884,7 277.119881,12.6242424 277.119881,24.7515152 L277.119881,30.6686869 L268.62998,30.6686869 L268.62998,41.9171717 L277.119881,41.9171717 L277.119881,92.769697 L291.699092,92.769697 Z M336.549194,94 C339.476746,94 342.052992,93.7070707 343.750973,93.4727273 L343.750973,82.5171717 C342.755605,82.5757576 341.643135,82.7515152 340.23791,82.7515152 C334.909765,82.7515152 332.216417,80.8181818 332.216417,74.7252525 L332.216417,41.9171717 L343.750973,41.9171717 L343.750973,30.6686869 L332.216417,30.6686869 L332.216417,14.9090909 L317.403002,14.9090909 L317.403002,30.6686869 L308.620345,30.6686869 L308.620345,41.9171717 L317.403002,41.9171717 L317.403002,75.9555556 C317.403002,88.7272727 323.550862,94 336.549194,94 Z M377.944784,94 C393.168056,94 404,86.1494949 404,74.4323232 L404,74.3737374 C404,65.3515152 399.023161,60.3131313 386.200482,57.4424242 L375.836946,55.1575758 C369.396331,53.6929293 366.995738,51.3494949 366.995738,47.7757576 L366.995738,47.7171717 C366.995738,43.1474747 371.035761,40.159596 377.476376,40.159596 C384.268297,40.159596 388.249768,43.7919192 388.89383,48.7717172 L388.952381,49.240404 L402.536224,49.240404 L402.477673,48.5959596 C401.950713,37.8747475 392.933852,29.379798 377.476376,29.379798 C362.487308,29.379798 352.592181,37.0545455 352.592181,48.420202 L352.592181,48.4787879 C352.592181,57.6767677 358.564388,63.4767677 370.45025,66.1131313 L380.755234,68.3979798 C387.19585,69.8626263 389.362238,71.9717172 389.362238,75.7212121 L389.362238,75.779798 C389.362238,80.3494949 385.088012,83.220202 378.003335,83.220202 C370.625903,83.220202 366.585881,80.0565657 365.473411,74.7252525 L365.356309,74.1979798 L351.011303,74.1979798 L351.069854,74.7252525 C352.357977,86.2666667 361.667593,94 377.944784,94 Z" id="path-2"></path>
        <filter x="-1.3%" y="-2.3%" width="102.5%" height="109.2%" filterUnits="objectBoundingBox" id="filter-3">
            <feOffset dx="0" dy="2" in="SourceAlpha" result="shadowOffsetOuter1"></feOffset>
            <feGaussianBlur stdDeviation="1" in="shadowOffsetOuter1" result="shadowBlurOuter1"></feGaussianBlur>
            <feColorMatrix values="0 0 0 0 0   0 0 0 0 0   0 0 0 0 0  0 0 0 0.5 0" type="matrix" in="shadowBlurOuter1"></feColorMatrix>
        </filter>
    </defs>
    <g id="brand-only" stroke="none" stroke-width="1" fill="none" fill-rule="evenodd">
        <g id="logo" filter="url(#filter-1)" transform="translate(6.000000, 28.000000)" fill="#EEEEEE" fill-rule="nonzero">
            <path d="M7.9408867,57.0591133 L7.9408867,16.9704433 C7.9408867,14.777628 6.16325866,13 3.97044335,13 C1.77762804,13 0,14.777628 0,16.9704433 L0,61.0295567 C0,63.222372 1.77762804,65 3.97044335,65 L48.0295567,65 C50.222372,65 52,63.222372 52,61.0295567 C52,58.8367413 50.222372,57.0591133 48.0295567,57.0591133 L7.9408867,57.0591133 Z" id="Path-3"></path>
            <path d="M20.9408867,44.0591133 L20.9408867,3.97044335 C20.9408867,1.77762804 19.1632587,-3.55271368e-15 16.9704433,-3.55271368e-15 C14.777628,-3.55271368e-15 13,1.77762804 13,3.97044335 L13,48.0295567 C13,50.222372 14.777628,52 16.9704433,52 L61.0295567,52 C63.222372,52 65,50.222372 65,48.0295567 C65,45.8367413 63.222372,44.0591133 61.0295567,44.0591133 L20.9408867,44.0591133 Z" id="Path-3" transform="translate(39.000000, 26.000000) rotate(-180.000000) translate(-39.000000, -26.000000) "></path>
            <path d="M33.3291139,31.6708861 L33.3291139,20.164557 C33.3291139,18.9691052 32.3600088,18 31.164557,18 C29.9691052,18 29,18.9691052 29,20.164557 L29,33.835443 C29,35.0308948 29.9691052,36 31.164557,36 L44.835443,36 C46.0308948,36 47,35.0308948 47,33.835443 C47,32.6399912 46.0308948,31.6708861 44.835443,31.6708861 L33.3291139,31.6708861 Z" id="Path-3" transform="translate(38.000000, 27.000000) rotate(-180.000000) translate(-38.000000, -27.000000) "></path>
        </g>
        <g id="Drafts" fill-rule="nonzero">
            <use fill="black" fill-opacity="1" filter="url(#filter-3)" xlink:href="#path-2"></use>
            <use fill="#FFFFFF" xlink:href="#path-2"></use>
        </g>
    </g>
</svg>