<svg height="150" viewBox="0 0 150 150" width="150" xmlns="http://www.w3.org/2000/svg" xmlns:xlink="http://www.w3.org/1999/xlink"><defs><linearGradient id="a" x1="50%" x2="50%" y1="100%" y2="0%"><stop offset="0" stop-color="#fff" stop-opacity=".5"/><stop offset="1" stop-opacity=".181471"/></linearGradient><path id="b" d="m0 0h150v150h-150z"/><filter id="c" height="147.6%" width="147.6%" x="-23.8%" y="-19%"><feOffset dx="0" dy="1" in="SourceAlpha" result="shadowOffsetOuter1"/><feGaussianBlur in="shadowOffsetOuter1" result="shadowBlurOuter1" stdDeviation="1.5"/><feColorMatrix in="shadowBlurOuter1" result="shadowMatrixOuter1" type="matrix" values="0 0 0 0 0   0 0 0 0 0   0 0 0 0 0  0 0 0 0.709125906 0"/><feMerge><feMergeNode in="shadowMatrixOuter1"/><feMergeNode in="SourceGraphic"/></feMerge></filter><path id="d" d="m29 0h9.3179939c7.6205985 0 12.1293052 4.61479395 12.1293052 12.6951037 0 8.0803097-4.4910255 12.8188721-12.1293052 12.8188721h-9.3179939zm4.5617503 3.85450223v17.80497127h4.2788511c5.1275489 0 7.9565413-3.1295729 7.9565413-8.9466886 0-5.71102856-2.8643548-8.85828267-7.9565413-8.85828267zm20.0504841 21.65947357v-18.7420751h4.2258075v3.2710225h.088406c.6011609-2.21015032 2.2808752-3.48319693 4.4910255-3.48319693.5657985 0 1.043191.07072481 1.3791339.15913082v3.97827061c-.3713053-.1414496-1.043191-.2475368-1.7858015-.2475368-2.4930496 0-3.9959519 1.6089895-3.9959519 4.2611699v10.803215zm18.8835247-3.0588481c2.528412 0 4.4910255-1.6620331 4.4910255-3.8898647v-1.4144962l-4.2258075.265218c-2.2985563.1591309-3.5008781 1.043191-3.5008781 2.5460933 0 1.485221 1.2730466 2.4930496 3.2356601 2.4930496zm-1.3260902 3.3240661c-3.6776902 0-6.3298707-2.2985564-6.3298707-5.6403037 0-3.3417474 2.5814557-5.2689985 7.3023368-5.5518977l4.8446496-.3005805v-1.3260902c0-1.9626135-1.3260902-3.04116689-3.5892842-3.04116689-1.9095699 0-3.2710225.99014739-3.5539218 2.47536839h-4.0666766c.1237684-3.44783454 3.3063849-5.90552174 7.7797293-5.90552174 4.7031999 0 7.7797292 2.44000599 7.7797292 6.17073984v12.8542345h-4.2434887v-2.9881233h-.088406c-1.043191 1.9979759-3.3594285 3.2533413-5.8347969 3.2533413zm14.9229352-.265218v-15.3472841h-2.5637744v-3.394791h2.5637744v-1.69739547c0-3.57160299 1.6443519-5.05682403 5.7463909-5.05682403.777973 0 1.4675399.05304361 2.1217444.15913083v3.16493531c-.3713053-.0530436-.8486978-.10608721-1.3791338-.10608721-1.5029023 0-2.1571068.6188421-2.1571068 2.05101953v1.48522104h3.5539218v3.394791h-3.483197v15.3472841zm12.0408992-23.12701341h4.4026197v4.38493831h3.53624v3.394791h-3.53624v9.7246615c0 1.5382647.707248 2.263194 2.263194 2.263194.406667 0 .972466-.0530436 1.255365-.088406v3.3594285c-.477392.1060873-1.343771.1768121-2.280875.1768121-4.0489955 0-5.6403037-1.4498587-5.6403037-5.0921865v-10.3435036h-2.6875429v-3.394791h2.6875429zm10.5910407 9.81306761c0-3.41247217 3.023485-5.69334734 7.585236-5.69334734 4.402619 0 7.426105 2.31623758 7.49683 5.76407214h-4.102039c-.106087-1.5736271-1.449859-2.54609322-3.483197-2.54609322-1.927251 0-3.217979.88406012-3.217979 2.21015032 0 1.043191.848698 1.7327579 2.687543 2.174788l3.341747.7426105c3.748415.8840602 5.215955 2.2985564 5.215955 5.0745052 0 3.5008782-3.288704 5.8701594-8.009585 5.8701594-4.685519 0-7.709004-2.3162376-7.991904-5.8347969h4.331895c.247537 1.6797142 1.608989 2.616818 3.81914 2.616818 2.139425 0 3.465516-.8486978 3.465516-2.2278316 0-1.0608722-.689567-1.6266707-2.510731-2.0863819l-3.412472-.7956542c-3.465516-.8133353-5.215955-2.5991368-5.215955-5.2689984z"/><filter id="e" height="127.1%" width="107.3%" x="-3.7%" y="-9.7%"><feOffset dx="0" dy="1" in="SourceAlpha" result="shadowOffsetOuter1"/><feGaussianBlur in="shadowOffsetOuter1" result="shadowBlurOuter1" stdDeviation="1"/><feColorMatrix in="shadowBlurOuter1" type="matrix" values="0 0 0 0 0   0 0 0 0 0   0 0 0 0 0  0 0 0 0.5 0"/></filter></defs><g fill="none" fill-rule="evenodd"><use fill="#00408b" xlink:href="#b"/><use fill="url(#a)" fill-opacity=".77" xlink:href="#b"/><g transform="translate(10 113)"><g fill="#fff" fill-rule="nonzero" filter="url(#c)" transform="translate(0 4)"><path d="m18.9275578 15.9637789c0 .5722891.463932 1.0362211 1.0362211 1.0362211s1.0362211-.463932 1.0362211-1.0362211v-14.92755779c0-.57228912-.463932-1.03622111-1.0362211-1.03622111h-14.92755779c-.57228912 0-1.03622111.46393199-1.03622111 1.03622111s.46393199 1.03622111 1.03622111 1.03622111h13.89133669z"/><path d="m15.1665024 6.3334976v5.9997536c0 .3682352.2985136.6667488.6667488.6667488s.6667488-.2985136.6667488-.6667488v-6.6665024c0-.36823519-.2985136-.6667488-.6667488-.6667488h-6.6665024c-.36823519 0-.6667488.29851361-.6667488.6667488s.29851361.6667488.6667488.6667488z"/><path d="m14.9275578 6.07244222v13.89133668c0 .5722891.463932 1.0362211 1.0362211 1.0362211s1.0362211-.463932 1.0362211-1.0362211v-14.92755779c0-.57228912-.463932-1.03622111-1.0362211-1.03622111h-14.92755779c-.57228912 0-1.03622111.46393199-1.03622111 1.03622111s.46393199 1.03622111 1.03622111 1.03622111z" transform="matrix(-1 0 0 -1 17 25)"/></g><use fill="#000" filter="url(#e)" xlink:href="#d"/><use fill="#fff" fill-rule="evenodd" xlink:href="#d"/></g><g fill="#fff"><path d="m344.188338 43.5336689c.344289 5.2524648.578758 8.8028144.578758 8.8028144-140.28678 0-321.0378124 0-462.448599 0l-1.069461-16.8666176 8.991034-8.9806136-10.206852-10.194228-1.033218-16.2950241h462.448599c0 .4753566.172088 3.44824663.437888 7.75653216l-9.965186.00000001 10.621705 10.41572733c.323632 5.06343.679817 10.5652405 1.010497 15.6445443l-11.632202 11.4066287h10.575313zm-451.294529 1.6897636 18.7559184-18.7341804-18.7559184-18.73271993h-10.575312l19.0289831 18.65997143.0749319.0734787-.076332.0748518-19.027583 18.6585984zm21.4096577 0 18.7559181-18.7341804-18.7559181-18.73271993h-10.5753125l19.0289833 18.65997143.0749318.0734787-.076332.0748518-19.0275831 18.6585984zm21.4096574 0 18.755918-18.7341804-18.755918-18.73271993h-10.5753125l19.0289832 18.65997143.0749319.0734787-.076332.0748518-19.0275831 18.6585984zm21.4096573 0 18.7559181-18.7341804-18.7559181-18.73271993h-10.5753125l19.0289833 18.65997143.0749318.0734787-.076332.0748518-19.0275831 18.6585984zm21.4096574 0 18.75591803-18.7341804-18.75591803-18.73271993h-10.5753125l19.0289832 18.65997143.0749319.0734787-.0763321.0748518-19.027583 18.6585984zm21.40965732 0 18.75591808-18.7341804-18.75591808-18.73271993h-10.57531252l19.02898324 18.65997143.07493186.0734787-.07633201.0748518-19.02758309 18.6585984zm21.40965738 0 18.755918-18.7341804-18.755918-18.73271993h-10.5753125l19.0289832 18.65997143.0749318.0734787-.076332.0748518-19.027583 18.6585984zm21.4096573 0 18.7559181-18.7341804-18.7559181-18.73271993h-10.5753125l19.0289832 18.65997143.0749319.0734787-.076332.0748518-19.0275831 18.6585984zm21.4096574 0 18.755918-18.7341804-18.755918-18.73271993h-10.5753126l19.0289833 18.65997143.0749318.0734787-.076332.0748518-19.0275831 18.6585984zm21.4096573 0 18.7559185-18.7341804-18.7559185-18.73271993h-10.5753125l19.0289832 18.65997143.0749319.0734787-.076332.0748518-19.0275831 18.6585984zm21.4096575 0 18.755918-18.7341804-18.755918-18.73271993h-10.5753127l19.0289837 18.65997143.074931.0734787-.076332.0748518-19.0275827 18.6585984zm21.409657 0 18.755918-18.7341804-18.755918-18.73271993h-10.575312l19.028983 18.65997143.074932.0734787-.076332.0748518-19.027583 18.6585984zm21.409658 0 18.755918-18.7341804-18.755918-18.73271993h-10.575313l19.028983 18.65997143.074932.0734787-.076332.0748518-19.027583 18.6585984zm21.409657 0 18.755918-18.7341804-18.755918-18.73271993h-10.575313l19.028984 18.65997143.074931.0734787-.076332.0748518-19.027583 18.6585984zm21.409657 0 18.755918-18.7341804-18.755918-18.73271993h-10.575312l19.028983 18.65997143.074932.0734787-.076332.0748518-19.027583 18.6585984zm21.409658 0 18.755918-18.7341804-18.755918-18.73271993h-10.575313l19.028983 18.65997143.074932.0734787-.076332.0748518-19.027583 18.6585984zm21.409657 0 18.755918-18.7341804-18.755918-18.73271993h-10.575313l19.028984 18.65997143.074931.0734787-.076332.0748518-19.027583 18.6585984zm21.409657 0 18.755918-18.7341804-18.755918-18.73271993h-10.575312l19.028983 18.65997143.074932.0734787-.076332.0748518-19.027583 18.6585984zm21.409658 0 18.755918-18.7341804-18.755918-18.73271993h-10.575313l19.028983 18.65997143.074932.0734787-.076332.0748518-19.027583 18.6585984zm21.409657 0 18.755918-18.7341804-18.755918-18.73271993h-10.575313l19.028984 18.65997143.074932.0734787-.076332.0748518-19.027584 18.6585984zm21.409657 0 18.755918-18.7341804-18.755918-18.73271993h-10.575312l19.028983 18.65997143.074932.0734787-.076332.0748518-19.027583 18.6585984z" opacity=".062047"/><g fill-rule="nonzero" opacity=".359275" transform="translate(10 20)"><path d="m143.486329 13.2311195h-6.77712c-.467863 0-.84714.3887562-.84714.8683112 0 .4795551.379277.8683112.84714.8683112h6.77712c.467862 0 .84714-.3887561.84714-.8683112 0-.479555-.379278-.8683112-.84714-.8683112zm-6.775122-9.94611001h11.887931c.468966 0 .849138-.38875617.849138-.8683112s-.380172-.86831119-.849138-.86831119h-11.887931c-.468966 0-.849138.38875616-.849138.86831119s.380172.8683112.849138.8683112zm11.887931 6.15711575h-11.887931c-.468966 0-.849138.38875616-.849138.86831116 0 .4795551.380172.8683112.849138.8683112h11.887931c.468966 0 .849138-.3887561.849138-.8683112 0-.479555-.380172-.86831116-.849138-.86831116zm0-3.94686907h-11.887931c-.468966 0-.849138.38875616-.849138.86831119s.380172.8683112.849138.8683112h11.887931c.468966 0 .849138-.38875617.849138-.8683112s-.380172-.86831119-.849138-.86831119z"/><path d="m122.243203 6.58743989c.595226 0 1.077752-.47431621 1.077752-1.05941491s-.482526-1.05941492-1.077752-1.05941492h-1.6982l.252776-1.98746238c.073824-.58052709-.345086-1.10996511-.935661-1.18253294-.590575-.07256784-1.129177.33921446-1.203001.91974154l-.2861 2.25025378h-3.576024l.252776-1.98746238c.073824-.58052709-.345086-1.10996511-.935661-1.18253294-.590576-.07256784-1.129178.33921446-1.203001.91974154l-.286101 2.25025378h-1.877824c-.595226 0-1.077752.47431622-1.077752 1.05941492s.482526 1.05941491 1.077752 1.05941491h1.608386l-.35925 2.82510645h-1.967638c-.595226 0-1.077752.47431621-1.077752 1.05941496 0 .5850987.482526 1.0594149 1.077752 1.0594149h1.6982l-.252776 1.9874624c-.035539.2787939.04309.5600427.218577.7818308.175486.221788.433444.3659331.717084.4007022.044811.0054828.089922.0082472.135078.0082776.542997-.0006916 1.000653-.3984013 1.06793-.9280475l.2861-2.2501973h3.576025l-.252776 1.9874624c-.035539.2787939.04309.5600428.218576.7818308.175487.2217881.433444.3659331.717085.4007023.04481.0054827.089922.0082472.135078.0082775.542997-.0006916 1.000653-.3984012 1.06793-.9280474l.2861-2.2501973h1.877811c.595226 0 1.077752-.4743162 1.077752-1.0594149 0-.58509875-.482526-1.05941496-1.077752-1.05941496h-1.608387l.35925-2.82510644zm-4.498875 2.82510645h-3.576024l.359251-2.82510645h3.576024z"/><path d="m83.23729 7.07096774c-.6613622 0-1.1975022.53148133-1.1975022 1.18709678 0 .65561544.53614 1.18709677 1.1975022 1.18709677s1.1975022-.53148133 1.1975022-1.18709677c-.000033-.65560187-.5361537-1.187064-1.1975022-1.18709678zm0-4.74838709c-.6613622 0-1.1975022.53148132-1.1975022 1.18709677 0 .65561544.53614 1.18709677 1.1975022 1.18709677s1.1975022-.53148133 1.1975022-1.18709677c-.000033-.65560187-.5361537-1.187064-1.1975022-1.18709677zm0 9.49677415c-.6613622 0-1.1975022.5314814-1.1975022 1.1870968 0 .6556155.53614 1.1870968 1.1975022 1.1870968s1.1975022-.5314813 1.1975022-1.1870968c-.000033-.6556019-.5361537-1.187064-1.1975022-1.1870968zm4.7900089-7.12258061h7.1850132c.6613622 0 1.1975022-.53148133 1.1975022-1.18709677 0-.65561545-.53614-1.18709677-1.1975022-1.18709677h-7.1850132c-.6613623 0-1.1975023.53148132-1.1975023 1.18709677 0 .65561544.53614 1.18709677 1.1975023 1.18709677zm7.1850132 2.37419355h-7.1850132c-.6613623 0-1.1975023.53148133-1.1975023 1.18709678 0 .65561544.53614 1.18709677 1.1975023 1.18709677h7.1850132c.6613622 0 1.1975022-.53148133 1.1975022-1.18709677 0-.65561545-.53614-1.18709678-1.1975022-1.18709678zm0 4.74838706h-7.1850132c-.6613623 0-1.1975023.5314814-1.1975023 1.1870968 0 .6556155.53614 1.1870968 1.1975023 1.1870968h7.1850132c.6613622 0 1.1975022-.5314813 1.1975022-1.1870968 0-.6556154-.53614-1.1870968-1.1975022-1.1870968z"/><path d="m68.3011596 3.84516129h-4.7899131v3.56129032h1.5482002c.2421634-.00000669.4604831.14460144.553148.36638777s.0414241.47706897-.1298267.64679933l-3.1690357 3.14165159-3.1692213-3.14165159c-.1712109-.16977282-.2224024-.42506406-.1297053-.64683947.092697-.2217754.3110288-.36636358.5531943-.36634763h1.5482181v-4.45132206l-.5989008-.89061342h-4.1911559c-.6613551.00003278-1.1974811.53149491-1.1975142 1.18709677v9.4967742c.0000331.6556019.5361591 1.187064 1.1975142 1.1870968h11.9749982c.6613551-.0000328 1.1974811-.5314949 1.1975141-1.1870968v-7.71612904c-.000033-.65560186-.536159-1.18706399-1.1975141-1.18709677z"/><path d="m26.6498674.25806452v3.14838709c0 .86940309.7135536 1.57419355 1.5937666 1.57419355.8802129 0 1.5937665-.70479046 1.5937665-1.57419355h3.1875332v9.44516129h-.7968833c-.880213 0-1.5937666.7047905-1.5937666 1.5741936 0 .869403.7135536 1.5741935 1.5937666 1.5741935h4.7812997c.880213 0 1.5937666-.7047905 1.5937666-1.5741935 0-.8694031-.7135536-1.5741936-1.5937666-1.5741936h-.7968833v-9.44516129h3.1875332c0 .86940309.7135536 1.57419355 1.5937666 1.57419355s1.5937666-.70479046 1.5937666-1.57419355v-3.14838709z"/><path d="m4.19125774 3.35483871h-1.79625332c-.63519807-.00001108-1.24438328.25148234-1.69353614.69915222-.44915287.44766989-.7014794 1.05484373-.70146828 1.68794455v1.79032258c-.00001112.63310083.25231541 1.24027467.70146828 1.68794456.44915286.44766988 1.05833807.6991633 1.69353614.69915222h1.79625332c.2023767-.00258447.40359156-.03094632.5987511-.08439581v.08439581c-.0007556.65886636-.53645323 1.19279526-1.19750221 1.19354836v1.7903226c1.65260127-.0019336 2.99181549-1.3367261 2.99375553-2.98387096v-2.08870968h-.03018305c.01640552-.09872297.02648693-.198387.03018305-.2983871v-1.79032258c.0000127-.63310131-.25231332-1.24027607-.70146653-1.6879463s-1.05833933-.69916313-1.69353789-.69915047zm10.17876876 2.38709677c.0000127-.63310131-.2523133-1.24027607-.7014665-1.6879463s-1.0583393-.69916313-1.6935379-.69915047h-1.7962533c-.63519808-.00001108-1.24438329.25148234-1.69353615.69915222-.44915287.44766989-.7014794 1.05484373-.70146828 1.68794455v1.79032258c-.00001112.63310083.25231541 1.24027467.70146828 1.68794456.44915286.44766988 1.05833807.6991633 1.69353615.69915222h1.7962533c.2023767-.00258447.4035916-.03094632.5987511-.08439581v.08439581c-.0007556.65886636-.5364532 1.19279526-1.1975022 1.19354836v1.7903226c1.6526013-.0019336 2.9918155-1.3367261 2.9937555-2.98387096v-2.08870968h-.030183c.0164055-.09872297.0264869-.198387.030183-.2983871z"/></g></g></g></svg>