<?xml version="1.0" encoding="UTF-8"?>
<svg width="380px" height="50px" viewBox="0 0 380 50" version="1.1" xmlns="http://www.w3.org/2000/svg" xmlns:xlink="http://www.w3.org/1999/xlink">
    <!-- Generator: Sketch 56.3 (81716) - https://sketch.com -->
    <title>icon-strip-02</title>
    <desc>Created with Sketch.</desc>
    <g id="icon-strip-02" stroke="none" stroke-width="1" fill="none" fill-rule="evenodd" stroke-linecap="round" stroke-linejoin="round">
        <g id="arrow-swap" transform="translate(66.000000, 15.000000)" stroke-width="2">
            <polyline id="Stroke" stroke="#0A259C" points="0.0003 4 6.0003 4 12.0003 18 21.0003 18"></polyline>
            <polyline id="Stroke" stroke="#0A259C" points="17.0003 14 21.0003 18 17.0003 22"></polyline>
            <polyline id="Stroke" stroke="#468CEF" points="17.0003 8 21.0003 4 17.0003 0"></polyline>
            <polyline id="Stroke" stroke="#468CEF" points="21.0003 4 12.0003 4 11.7203 4.653"></polyline>
            <polyline id="Stroke" stroke="#468CEF" points="0.0003 18 6.0003 18 6.2803 17.346"></polyline>
        </g>
        <g id="eye" transform="translate(174.000000, 18.000000)" stroke-width="2">
            <path d="M11.0003,0 C4.9263,0 0.0003,6.667 0.0003,8 C0.0003,9.333 4.9263,16 11.0003,16 C17.0743,16 22.0003,9.333 22.0003,8 C22.0003,6.667 17.0743,0 11.0003,0 Z" id="Stroke" stroke="#0A259C"></path>
            <path d="M11.0003,11 C9.3433,11 8.0003,9.657 8.0003,8 C8.0003,6.343 9.3433,5 11.0003,5 C12.6573,5 14.0003,6.343 14.0003,8 C14.0003,9.657 12.6573,11 11.0003,11 Z" id="Stroke" stroke="#468CEF"></path>
        </g>
        <g id="archive-download" transform="translate(231.000000, 16.000000)" stroke-width="2">
            <polyline id="Stroke" stroke="#468CEF" points="15.0003 11 11.0003 15 7.0003 11"></polyline>
            <path d="M11.0003,0 L11.0003,15" id="Stroke" stroke="#468CEF"></path>
            <path d="M15.0003,0 L20.0003,0 C21.1043,0 22.0003,0.896 22.0003,2 L22.0003,18 C22.0003,19.104 21.1043,20 20.0003,20 L2.0003,20 C0.8963,20 0.0003,19.104 0.0003,18 L0.0003,2 C0.0003,0.896 0.8963,0 2.0003,0 L7.0003,0" id="Stroke" stroke="#0A259C"></path>
            <path d="M15.0003,6 L22.0003,6" id="Stroke" stroke="#0A259C"></path>
            <path d="M0.0003,6 L7.0003,6" id="Stroke" stroke="#0A259C"></path>
        </g>
        <g id="send-in" transform="translate(344.000000, 17.000000)" stroke-width="2">
            <path d="M9.0003,18 L16.0003,18 C17.1043,18 18.0003,17.104 18.0003,16 L18.0003,2 C18.0003,0.896 17.1043,0 16.0003,0 L9.0003,0" id="Stroke" stroke="#468CEF"></path>
            <polyline id="Stroke" stroke="#0A259C" points="8.0003 13 12.0003 9 8.0003 5"></polyline>
            <path d="M12.0003,9 L0.0003,9" id="Stroke" stroke="#0A259C"></path>
        </g>
        <g id="command" transform="translate(122.000000, 17.000000)" stroke="#0A259C" stroke-width="2">
            <path d="M18.0003,15 L18.0003,15 C18.0003,16.657 16.6573,18 15.0003,18 C13.3433,18 12.0003,16.657 12.0003,15 L12.0003,3 C12.0003,1.343 13.3433,0 15.0003,0 C16.6573,0 18.0003,1.343 18.0003,3 C18.0003,4.657 16.6573,6 15.0003,6 L3.0003,6 C1.3433,6 0.0003,4.657 0.0003,3 C0.0003,1.343 1.3433,0 3.0003,0 C4.6573,0 6.0003,1.343 6.0003,3 L6.0003,15 C6.0003,16.657 4.6573,18 3.0003,18 C1.3433,18 0.0003,16.657 0.0003,15 C0.0003,13.343 1.3433,12 3.0003,12 L15.0003,12 C16.6573,12 18.0003,13.343 18.0003,15 Z" id="Stroke"></path>
        </g>
        <g id="mail" transform="translate(287.000000, 17.000000)" stroke-width="2">
            <path d="M0.0003,4.9229 L9.3243,9.2269 C10.3883,9.7169 11.6123,9.7169 12.6763,9.2269 L22.0003,4.9229" id="Stroke" stroke="#468CEF"></path>
            <path d="M20.0003,18 L2.0003,18 C0.8963,18 0.0003,17.104 0.0003,16 L0.0003,2 C0.0003,0.896 0.8963,0 2.0003,0 L20.0003,0 C21.1043,0 22.0003,0.896 22.0003,2 L22.0003,16 C22.0003,17.104 21.1043,18 20.0003,18 Z" id="Stroke" stroke="#0A259C"></path>
        </g>
        <g id="menu" transform="translate(14.000000, 18.000000)" stroke="#0A259C" stroke-width="2">
            <path d="M0.0003,0 L18.0003,0" id="Stroke"></path>
            <path d="M0.0003,7 L18.0003,7" id="Stroke"></path>
            <path d="M0.0003,14 L18.0003,14" id="Stroke"></path>
            <path d="M0.0003,0 L18.0003,0" id="Stroke"></path>
            <path d="M0.0003,7 L18.0003,7" id="Stroke"></path>
            <path d="M0.0003,14 L18.0003,14" id="Stroke"></path>
        </g>
    </g>
</svg>