<?xml version="1.0" encoding="UTF-8"?>
<svg width="380px" height="50px" viewBox="0 0 380 50" version="1.1" xmlns="http://www.w3.org/2000/svg" xmlns:xlink="http://www.w3.org/1999/xlink">
    <!-- Generator: Sketch 56.3 (81716) - https://sketch.com -->
    <title>icon-strip-01</title>
    <desc>Created with Sketch.</desc>
    <g id="icon-strip-01" stroke="none" stroke-width="1" fill="none" fill-rule="evenodd" stroke-linecap="round" stroke-linejoin="round">
        <g id="cloud-upload" transform="translate(234.000000, 18.000000)" stroke-width="2">
            <polyline id="Stroke" stroke="#468CEF" points="15.0003 11 11.0003 7 7.0003 11"></polyline>
            <path d="M16.0003,16 L17.5003,16 C19.9853,16 22.0003,13.985 22.0003,11.5 C22.0003,9.185 20.2453,7.301 17.9973,7.05 C17.9983,7.033 18.0003,7.017 18.0003,7 C18.0003,3.134 14.8663,0 11.0003,0 C7.1343,0 4.0003,3.134 4.0003,7 C4.0003,7.017 4.0023,7.033 4.0033,7.05 C1.7553,7.301 0.0003,9.185 0.0003,11.5 C0.0003,13.985 2.0153,16 4.5003,16 L6.0003,16" id="Stroke" stroke="#0A259C"></path>
            <path d="M11.0003,7 L11.0003,17" id="Stroke" stroke="#468CEF"></path>
        </g>
        <g id="books-pencil" transform="translate(178.000000, 15.000000)" stroke-width="2">
            <path d="M0.0003,5 L14.0003,5" id="Stroke" stroke="#468CEF"></path>
            <path d="M0.0003,17 L14.0003,17" id="Stroke" stroke="#468CEF"></path>
            <path d="M18.0003,5 L22.0003,5" id="Stroke" stroke="#468CEF"></path>
            <path d="M5.0003,22 L2.0003,22 C0.8963,22 0.0003,21.104 0.0003,20 L0.0003,2 C0.0003,0.896 0.8963,0 2.0003,0 L5.0003,0 C6.1043,0 7.0003,0.896 7.0003,2 L7.0003,20 C7.0003,21.104 6.1043,22 5.0003,22 Z" id="Stroke" stroke="#0A259C"></path>
            <path d="M12.0003,22 L9.0003,22 C7.8963,22 7.0003,21.104 7.0003,20 L7.0003,2 C7.0003,0.896 7.8963,0 9.0003,0 L12.0003,0 C13.1043,0 14.0003,0.896 14.0003,2 L14.0003,20 C14.0003,21.104 13.1043,22 12.0003,22 Z" id="Stroke" stroke="#0A259C"></path>
            <path d="M20.0003,0 C18.8963,0 18.0003,0.896 18.0003,2 L18.0003,19 L20.0003,22 L22.0003,19 L22.0003,2 C22.0003,0.896 21.1043,0 20.0003,0 Z" id="Stroke" stroke="#0A259C"></path>
        </g>
        <g id="mic" transform="translate(128.000000, 15.000000)" stroke="#0A259C" stroke-width="2">
            <path d="M16.0003,9 L16.0003,11 C16.0003,15.411 12.4113,19 8.0003,19 C3.5893,19 0.0003,15.411 0.0003,11 L0.0003,9" id="Stroke"></path>
            <path d="M8.0003,14 L8.0003,14 C6.3433,14 5.0003,12.657 5.0003,11 L5.0003,3 C5.0003,1.343 6.3433,0 8.0003,0 C9.6573,0 11.0003,1.343 11.0003,3 L11.0003,11 C11.0003,12.657 9.6573,14 8.0003,14 Z" id="Stroke"></path>
            <path d="M8.0003,22 L8.0003,19" id="Stroke"></path>
        </g>
        <g id="filter" transform="translate(15.000000, 16.000000)" stroke="#0A259C" stroke-width="2">
            <path d="M19.9886,0 L2.0116,0 C0.3486,0 -0.5934,1.899 0.4176,3.215 L8.0006,13 L8.0006,20 L12.8536,17.899 C13.5846,17.581 14.0006,16.861 14.0006,16.067 L14.0006,13 L21.5836,3.216 C22.5936,1.899 21.6516,0 19.9886,0 Z" id="Stroke"></path>
        </g>
        <g id="chat-conversation" transform="translate(71.000000, 16.000000)" stroke-width="2">
            <path d="M6.0003,7 L16.0003,7" id="Stroke" stroke="#468CEF"></path>
            <path d="M9.0003,11 L13.0003,11" id="Stroke" stroke="#468CEF"></path>
            <path d="M13.5003,0 L8.5003,0 C3.8063,0 0.0003,3.806 0.0003,8.5 C0.0003,12.682 3.0223,16.15 7.0003,16.86 L7.0003,21 L13.0003,17 L13.5003,17 C18.1943,17 22.0003,13.194 22.0003,8.5 C22.0003,3.806 18.1943,0 13.5003,0 Z" id="Stroke" stroke="#0A259C"></path>
        </g>
        <g id="code-alt" transform="translate(343.000000, 15.000000)" stroke-width="2">
            <polyline id="Stroke" stroke="#0A259C" points="4.0003 7 0.0003 11 4.0003 15"></polyline>
            <polyline id="Stroke" stroke="#0A259C" points="16.0003 15 20.0003 11 16.0003 7"></polyline>
            <path d="M13.0003,0 L7.0003,22" id="Stroke" stroke="#468CEF"></path>
        </g>
        <g id="branch" transform="translate(291.000000, 15.000000)" stroke-width="2">
            <path d="M3.0003,6 L3.0003,16" id="Stroke" stroke="#468CEF"></path>
            <path d="M15.0003,6 L15.0003,8 C15.0003,10.209 13.2093,12 11.0003,12 L7.0003,12 C4.7913,12 3.0003,13.791 3.0003,16" id="Stroke" stroke="#468CEF"></path>
            <path d="M6.0003,3 C6.0003,4.657 4.6573,6 3.0003,6 C1.3433,6 0.0003,4.657 0.0003,3 C0.0003,1.343 1.3433,0 3.0003,0 C4.6573,0 6.0003,1.343 6.0003,3 Z" id="Stroke" stroke="#0A259C"></path>
            <path d="M6.0003,19 C6.0003,20.657 4.6573,22 3.0003,22 C1.3433,22 0.0003,20.657 0.0003,19 C0.0003,17.343 1.3433,16 3.0003,16 C4.6573,16 6.0003,17.343 6.0003,19 Z" id="Stroke" stroke="#0A259C"></path>
            <path d="M18.0003,3 C18.0003,4.657 16.6573,6 15.0003,6 C13.3433,6 12.0003,4.657 12.0003,3 C12.0003,1.343 13.3433,0 15.0003,0 C16.6573,0 18.0003,1.343 18.0003,3 Z" id="Stroke" stroke="#0A259C"></path>
        </g>
    </g>
</svg>