<svg height="21" viewBox="0 0 20 21" width="20" xmlns="http://www.w3.org/2000/svg"><path d="m17.6484969 16.5873684-3.5083039-3.5156128c.6655679-1.0435414 1.0181344-2.2559645 1.0159464-3.49368592 0-3.63296757-2.9451022-6.57806968-6.57806972-6.57806968-3.63296757 0-6.57806968 2.94510211-6.57806968 6.57806968 0 3.63296752 2.94510211 6.57806972 6.57806968 6.57806972 1.23772144.002188 2.45014452-.3503785 3.49368592-1.0159464l3.5156128 3.5083039c.5799815.4966834 1.4445355.4632894 1.9844767-.0766518s.5733352-1.4044952.0766518-1.9844767zm-9.07042722-3.3548156c-2.01831532 0-3.65448316-1.6361678-3.65448316-3.65448312s1.63616784-3.65448316 3.65448316-3.65448316 3.65448312 1.63616784 3.65448312 3.65448316-1.6361678 3.65448312-3.65448312 3.65448312z" fill="#c9c9c9"/></svg>