<?xml version="1.0" encoding="UTF-8"?>
<svg width="1044px" height="783px" viewBox="0 0 1044 783" version="1.1" xmlns="http://www.w3.org/2000/svg" xmlns:xlink="http://www.w3.org/1999/xlink">
    <title>ipad</title>
    <defs>
        <rect id="path-1" x="10" y="757" width="1024" height="17" rx="8.5"></rect>
        <filter x="-1.7%" y="-91.2%" width="103.4%" height="305.9%" filterUnits="objectBoundingBox" id="filter-2">
            <feOffset dx="0" dy="2" in="SourceAlpha" result="shadowOffsetOuter1"></feOffset>
            <feGaussianBlur stdDeviation="5.5" in="shadowOffsetOuter1" result="shadowBlurOuter1"></feGaussianBlur>
            <feColorMatrix values="0 0 0 0 0   0 0 0 0 0   0 0 0 0 0  0 0 0 0.5 0" type="matrix" in="shadowBlurOuter1"></feColorMatrix>
        </filter>
        <rect id="path-3" x="-361" y="384" width="751" height="10" rx="5"></rect>
        <filter x="-2.3%" y="-155.0%" width="104.7%" height="450.0%" filterUnits="objectBoundingBox" id="filter-4">
            <feOffset dx="0" dy="2" in="SourceAlpha" result="shadowOffsetOuter1"></feOffset>
            <feGaussianBlur stdDeviation="5.5" in="shadowOffsetOuter1" result="shadowBlurOuter1"></feGaussianBlur>
            <feColorMatrix values="0 0 0 0 0   0 0 0 0 0   0 0 0 0 0  0 0 0 0.5 0" type="matrix" in="shadowBlurOuter1"></feColorMatrix>
        </filter>
        <rect id="path-5" x="654" y="384" width="751" height="10" rx="5"></rect>
        <filter x="-2.3%" y="-155.0%" width="104.7%" height="450.0%" filterUnits="objectBoundingBox" id="filter-6">
            <feOffset dx="0" dy="2" in="SourceAlpha" result="shadowOffsetOuter1"></feOffset>
            <feGaussianBlur stdDeviation="5.5" in="shadowOffsetOuter1" result="shadowBlurOuter1"></feGaussianBlur>
            <feColorMatrix values="0 0 0 0 0   0 0 0 0 0   0 0 0 0 0  0 0 0 0.5 0" type="matrix" in="shadowBlurOuter1"></feColorMatrix>
        </filter>
        <linearGradient x1="-16.8790099%" y1="26.8411932%" x2="-9.20178218%" y2="83.2222727%" id="linearGradient-7">
            <stop stop-color="#F4F7FA" offset="0%"></stop>
            <stop stop-color="#ECEEF1" offset="100%"></stop>
        </linearGradient>
    </defs>
    <g id="ipad" stroke="none" stroke-width="1" fill="none" fill-rule="evenodd">
        <g id="Rectangle" opacity="0.699153355" fill="black" fill-opacity="1">
            <use filter="url(#filter-2)" xlink:href="#path-1"></use>
        </g>
        <g id="Rectangle" opacity="0.699153355" transform="translate(14.500000, 389.000000) rotate(-90.000000) translate(-14.500000, -389.000000) " fill="black" fill-opacity="1">
            <use filter="url(#filter-4)" xlink:href="#path-3"></use>
        </g>
        <g id="Rectangle" opacity="0.699153355" transform="translate(1029.500000, 389.000000) rotate(-90.000000) translate(-1029.500000, -389.000000) " fill="black" fill-opacity="1">
            <use filter="url(#filter-6)" xlink:href="#path-5"></use>
        </g>
        <path d="M1018.4,0 C1027.01564,6.14115081e-14 1034,6.9843579 1034,15.6 L1034,752.4 C1034,761.015642 1027.01564,768 1018.4,768 L25.6,768 C16.9843579,768 10,761.015642 10,752.4 L10,15.6 C10,6.9843579 16.9843579,2.46753067e-14 25.6,0 L1018.4,0 Z M1006,17 L40,17 C33.9248678,17 29,21.9248678 29,28 L29,28 L29,741 C29,747.075132 33.9248678,752 40,752 L40,752 L1006,752 C1012.07513,752 1017,747.075132 1017,741 L1017,741 L1017,28 C1017,21.9248678 1012.07513,17 1006,17 L1006,17 Z" id="Combined-Shape" fill="url(#linearGradient-7)" fill-rule="nonzero"></path>
    </g>
</svg>