<?xml version="1.0" encoding="UTF-8"?>
<svg width="294px" height="650px" viewBox="0 0 294 650" version="1.1" xmlns="http://www.w3.org/2000/svg" xmlns:xlink="http://www.w3.org/1999/xlink">
    <title>watch</title>
    <defs>
        <rect id="path-1" x="5" y="118" width="137" height="16" rx="8"></rect>
        <filter x="-16.1%" y="-125.0%" width="132.1%" height="375.0%" filterUnits="objectBoundingBox" id="filter-2">
            <feOffset dx="0" dy="2" in="SourceAlpha" result="shadowOffsetOuter1"></feOffset>
            <feGaussianBlur stdDeviation="7" in="shadowOffsetOuter1" result="shadowBlurOuter1"></feGaussianBlur>
            <feColorMatrix values="0 0 0 0 0   0 0 0 0 0   0 0 0 0 0  0 0 0 0.5 0" type="matrix" in="shadowBlurOuter1"></feColorMatrix>
        </filter>
        <path d="M91.5,56 L196.5,56 C201.746705,56 206,60.2532949 206,65.5 C206,70.7467051 201.746705,75 196.5,75 L91.5,75 C86.2532949,75 82,70.7467051 82,65.5 C82,60.2532949 86.2532949,56 91.5,56 Z" id="path-3"></path>
        <filter x="-17.7%" y="-105.3%" width="135.5%" height="331.6%" filterUnits="objectBoundingBox" id="filter-4">
            <feOffset dx="0" dy="2" in="SourceAlpha" result="shadowOffsetOuter1"></feOffset>
            <feGaussianBlur stdDeviation="7" in="shadowOffsetOuter1" result="shadowBlurOuter1"></feGaussianBlur>
            <feColorMatrix values="0 0 0 0 0   0 0 0 0 0   0 0 0 0 0  0 0 0 0.5 0" type="matrix" in="shadowBlurOuter1"></feColorMatrix>
        </filter>
        <path d="M-40.5,56 L64.5,56 C69.7467051,56 74,60.2532949 74,65.5 C74,70.7467051 69.7467051,75 64.5,75 L-40.5,75 C-45.7467051,75 -50,70.7467051 -50,65.5 C-50,60.2532949 -45.7467051,56 -40.5,56 Z" id="path-5"></path>
        <filter x="-17.7%" y="-105.3%" width="135.5%" height="331.6%" filterUnits="objectBoundingBox" id="filter-6">
            <feOffset dx="0" dy="2" in="SourceAlpha" result="shadowOffsetOuter1"></feOffset>
            <feGaussianBlur stdDeviation="7" in="shadowOffsetOuter1" result="shadowBlurOuter1"></feGaussianBlur>
            <feColorMatrix values="0 0 0 0 0   0 0 0 0 0   0 0 0 0 0  0 0 0 0.5 0" type="matrix" in="shadowBlurOuter1"></feColorMatrix>
        </filter>
        <linearGradient x1="-16.8790099%" y1="18.5982591%" x2="-9.20178218%" y2="95.047105%" id="linearGradient-7">
            <stop stop-color="#F4F7FA" offset="0%"></stop>
            <stop stop-color="#ECEEF1" offset="100%"></stop>
        </linearGradient>
        <rect id="path-8" x="5" y="113" width="137" height="16" rx="8"></rect>
        <filter x="-16.1%" y="-125.0%" width="132.1%" height="375.0%" filterUnits="objectBoundingBox" id="filter-9">
            <feOffset dx="0" dy="2" in="SourceAlpha" result="shadowOffsetOuter1"></feOffset>
            <feGaussianBlur stdDeviation="7" in="shadowOffsetOuter1" result="shadowBlurOuter1"></feGaussianBlur>
            <feColorMatrix values="0 0 0 0 0   0 0 0 0 0   0 0 0 0 0  0 0 0 0.5 0" type="matrix" in="shadowBlurOuter1"></feColorMatrix>
        </filter>
        <path d="M91.5,52 L195.5,52 C200.746705,52 205,56.2532949 205,61.5 C205,66.7467051 200.746705,71 195.5,71 L91.5,71 C86.2532949,71 82,66.7467051 82,61.5 C82,56.2532949 86.2532949,52 91.5,52 Z" id="path-10"></path>
        <filter x="-17.9%" y="-105.3%" width="135.8%" height="331.6%" filterUnits="objectBoundingBox" id="filter-11">
            <feOffset dx="0" dy="2" in="SourceAlpha" result="shadowOffsetOuter1"></feOffset>
            <feGaussianBlur stdDeviation="7" in="shadowOffsetOuter1" result="shadowBlurOuter1"></feGaussianBlur>
            <feColorMatrix values="0 0 0 0 0   0 0 0 0 0   0 0 0 0 0  0 0 0 0.5 0" type="matrix" in="shadowBlurOuter1"></feColorMatrix>
        </filter>
        <path d="M-40.5,52 L63.5,52 C68.7467051,52 73,56.2532949 73,61.5 C73,66.7467051 68.7467051,71 63.5,71 L-40.5,71 C-45.7467051,71 -50,66.7467051 -50,61.5 C-50,56.2532949 -45.7467051,52 -40.5,52 Z" id="path-12"></path>
        <filter x="-17.9%" y="-105.3%" width="135.8%" height="331.6%" filterUnits="objectBoundingBox" id="filter-13">
            <feOffset dx="0" dy="2" in="SourceAlpha" result="shadowOffsetOuter1"></feOffset>
            <feGaussianBlur stdDeviation="7" in="shadowOffsetOuter1" result="shadowBlurOuter1"></feGaussianBlur>
            <feColorMatrix values="0 0 0 0 0   0 0 0 0 0   0 0 0 0 0  0 0 0 0.5 0" type="matrix" in="shadowBlurOuter1"></feColorMatrix>
        </filter>
        <linearGradient x1="-16.8790099%" y1="19.0758451%" x2="-9.20178218%" y2="94.3619879%" id="linearGradient-14">
            <stop stop-color="#F4F7FA" offset="0%"></stop>
            <stop stop-color="#ECEEF1" offset="100%"></stop>
        </linearGradient>
        <linearGradient x1="4.97428919%" y1="8.82878788%" x2="10.1429159%" y2="109.061818%" id="linearGradient-15">
            <stop stop-color="#F4F7FA" offset="0%"></stop>
            <stop stop-color="#ECEEF1" offset="100%"></stop>
        </linearGradient>
        <path d="M85.916556,168 L188.083444,168 C214.829006,168 224.527593,170.784768 234.305371,176.013981 C244.083149,181.243194 251.756806,188.916851 256.986019,198.694629 C262.215232,208.472407 265,218.170994 265,244.916556 L265,403.083444 C265,429.829006 262.215232,439.527593 256.986019,449.305371 C251.756806,459.083149 244.083149,466.756806 234.305371,471.986019 C224.527593,477.215232 214.829006,480 188.083444,480 L85.916556,480 C59.1709938,480 49.4724067,477.215232 39.6946289,471.986019 C29.9168511,466.756806 22.2431939,459.083149 17.0139811,449.305371 C11.7847683,439.527593 9,429.829006 9,403.083444 L9,244.916556 C9,218.170994 11.7847683,208.472407 17.0139811,198.694629 C22.2431939,188.916851 29.9168511,181.243194 39.6946289,176.013981 C49.4724067,170.784768 59.1709938,168 85.916556,168 Z" id="path-16"></path>
        <filter x="-5.1%" y="-3.8%" width="110.2%" height="108.3%" filterUnits="objectBoundingBox" id="filter-17">
            <feMorphology radius="0.5" operator="dilate" in="SourceAlpha" result="shadowSpreadOuter1"></feMorphology>
            <feOffset dx="0" dy="1" in="shadowSpreadOuter1" result="shadowOffsetOuter1"></feOffset>
            <feGaussianBlur stdDeviation="4" in="shadowOffsetOuter1" result="shadowBlurOuter1"></feGaussianBlur>
            <feComposite in="shadowBlurOuter1" in2="SourceAlpha" operator="out" result="shadowBlurOuter1"></feComposite>
            <feColorMatrix values="0 0 0 0 0   0 0 0 0 0   0 0 0 0 0  0 0 0 0.5 0" type="matrix" in="shadowBlurOuter1"></feColorMatrix>
        </filter>
        <linearGradient x1="40.1066553%" y1="8.82878788%" x2="41.2423399%" y2="109.061818%" id="linearGradient-18">
            <stop stop-color="#F4F7FA" offset="0%"></stop>
            <stop stop-color="#ECEEF1" offset="100%"></stop>
        </linearGradient>
    </defs>
    <g id="watch" stroke="none" stroke-width="1" fill="none" fill-rule="evenodd">
        <g id="Group" transform="translate(65.000000, 475.000000)">
            <g id="Rectangle" opacity="0.56279355" fill="black" fill-opacity="1">
                <use filter="url(#filter-2)" xlink:href="#path-1"></use>
            </g>
            <g id="Rectangle" opacity="0.56279355" transform="translate(144.000000, 65.500000) rotate(-270.000000) translate(-144.000000, -65.500000) " fill="black" fill-opacity="1">
                <use filter="url(#filter-4)" xlink:href="#path-3"></use>
            </g>
            <g id="Rectangle" opacity="0.56279355" transform="translate(12.000000, 65.500000) rotate(-270.000000) translate(-12.000000, -65.500000) " fill="black" fill-opacity="1">
                <use filter="url(#filter-6)" xlink:href="#path-5"></use>
            </g>
            <path d="M0,0 L150,0 L150,110.488918 C150,117.621068 149.257395,120.207358 147.862938,122.814766 C146.468482,125.422173 144.422173,127.468482 141.814766,128.862938 C139.207358,130.257395 136.621068,131 129.488918,131 L20.5110816,131 C13.3789317,131 10.7926418,130.257395 8.18523437,128.862938 C5.57782696,127.468482 3.53151837,125.422173 2.13706163,122.814766 C0.742604889,120.207358 2.12206786e-15,117.621068 -3.65225935e-15,110.488918 L0,0 L0,0 Z" id="Rectangle" fill="url(#linearGradient-7)" fill-rule="nonzero"></path>
        </g>
        <g id="Group" transform="translate(139.500000, 107.000000) rotate(-180.000000) translate(-139.500000, -107.000000) translate(63.000000, 40.000000)">
            <g id="Rectangle" opacity="0.56279355" fill="black" fill-opacity="1">
                <use filter="url(#filter-9)" xlink:href="#path-8"></use>
            </g>
            <g id="Rectangle" opacity="0.56279355" transform="translate(143.500000, 61.500000) rotate(-270.000000) translate(-143.500000, -61.500000) " fill="black" fill-opacity="1">
                <use filter="url(#filter-11)" xlink:href="#path-10"></use>
            </g>
            <g id="Rectangle" opacity="0.56279355" transform="translate(11.500000, 61.500000) rotate(-270.000000) translate(-11.500000, -61.500000) " fill="black" fill-opacity="1">
                <use filter="url(#filter-13)" xlink:href="#path-12"></use>
            </g>
            <path d="M0,4 L150,4 L150,113.488918 C150,120.621068 149.257395,123.207358 147.862938,125.814766 C146.468482,128.422173 144.422173,130.468482 141.814766,131.862938 C139.207358,133.257395 136.621068,134 129.488918,134 L20.5110816,134 C13.3789317,134 10.7926418,133.257395 8.18523437,131.862938 C5.57782696,130.468482 3.53151837,128.422173 2.13706163,125.814766 C0.742604889,123.207358 3.20988293e-16,120.621068 -5.52448164e-16,113.488918 L0,4 L0,4 Z" id="Rectangle" fill="url(#linearGradient-14)" fill-rule="nonzero"></path>
        </g>
        <g id="Combined-Shape" fill-rule="nonzero">
            <use fill="black" fill-opacity="1" filter="url(#filter-17)" xlink:href="#path-16"></use>
            <use stroke-opacity="0.280112953" stroke="#979797" stroke-width="1" fill="url(#linearGradient-15)" xlink:href="#path-16"></use>
        </g>
        <path d="M265,254 L276.026402,254 C279.146717,254 280.278219,254.32489 281.41896,254.934964 C282.559701,255.545039 283.454961,256.440299 284.065036,257.58104 C284.67511,258.721781 285,259.853283 285,262.973598 L285,297.026402 C285,300.146717 284.67511,301.278219 284.065036,302.41896 C283.454961,303.559701 282.559701,304.454961 281.41896,305.065036 C280.278219,305.67511 279.146717,306 276.026402,306 L265,306 L265,306 L265,254 Z" id="Combined-Shape" stroke="#979797" fill="url(#linearGradient-18)" fill-rule="nonzero"></path>
        <rect id="Rectangle" fill="#000000" x="20" y="182" width="234" height="286" rx="49"></rect>
    </g>
</svg>