<?xml version="1.0" encoding="UTF-8"?>
<svg width="868px" height="101px" viewBox="0 0 868 101" version="1.1" xmlns="http://www.w3.org/2000/svg" xmlns:xlink="http://www.w3.org/1999/xlink">
    <title>brand</title>
    <defs>
        <filter x="-12.3%" y="-12.3%" width="124.6%" height="124.6%" filterUnits="objectBoundingBox" id="filter-1">
            <feOffset dx="0" dy="2" in="SourceAlpha" result="shadowOffsetOuter1"></feOffset>
            <feGaussianBlur stdDeviation="1" in="shadowOffsetOuter1" result="shadowBlurOuter1"></feGaussianBlur>
            <feColorMatrix values="0 0 0 0 0   0 0 0 0 0   0 0 0 0 0  0 0 0 0.5 0" type="matrix" in="shadowBlurOuter1" result="shadowMatrixOuter1"></feColorMatrix>
            <feMerge>
                <feMergeNode in="shadowMatrixOuter1"></feMergeNode>
                <feMergeNode in="SourceGraphic"></feMergeNode>
            </feMerge>
        </filter>
        <path d="M118.856402,92.769697 C144.150454,92.769697 159.02242,77.0686869 159.02242,50.2949495 L159.02242,50.1777778 C159.02242,23.4626263 144.033352,8.23030303 118.856402,8.23030303 L88,8.23030303 L88,92.769697 L118.856402,92.769697 Z M117.275523,79.9979798 L103.10617,79.9979798 L103.10617,21.0020202 L117.275523,21.0020202 C134.079674,21.0020202 143.623495,31.3717172 143.623495,50.2363636 L143.623495,50.3535354 C143.623495,69.6282828 134.255327,79.9979798 117.275523,79.9979798 Z M184.140819,92.769697 L184.140819,56.3878788 C184.140819,47.6585859 189.117658,42.3272727 197.373356,42.3272727 C199.8325,42.3272727 202.057439,42.6787879 203.287011,43.1474747 L203.287011,29.9656566 C202.174541,29.6727273 200.476561,29.379798 198.661479,29.379798 C191.342598,29.379798 185.89735,33.7737374 184.023717,41.0383838 L183.730962,41.0383838 L183.730962,30.6686869 L169.561608,30.6686869 L169.561608,92.769697 L184.140819,92.769697 Z M227.761349,93.8242424 C235.958495,93.8242424 242.867519,89.7232323 246.439133,83.220202 L246.790439,83.220202 L246.790439,92.769697 L261.36965,92.769697 L261.36965,50.0606061 C261.36965,37.5818182 251.357421,29.379798 235.841393,29.379798 C220.091162,29.379798 210.547341,37.640404 209.669075,48.6545455 L209.610524,49.3575758 L223.135816,49.3575758 L223.252918,48.830303 C224.189735,44.2606061 228.40541,41.0383838 235.314434,41.0383838 C242.691866,41.0383838 246.790439,44.8464646 246.790439,51.1151515 L246.790439,55.3919192 L230.571799,56.3878788 C215.52418,57.3252525 206.975727,63.9454545 206.975727,74.959596 L206.975727,75.0767677 C206.975727,86.1494949 215.348527,93.8242424 227.761349,93.8242424 Z M232.094126,82.6929293 C225.712062,82.6929293 221.496387,79.5878788 221.496387,74.4909091 L221.496387,74.4323232 C221.496387,69.5111111 225.419307,66.4060606 232.621086,65.9373737 L246.790439,65.0585859 L246.790439,69.7454545 C246.790439,77.1272727 240.466926,82.6929293 232.094126,82.6929293 Z M291.699092,92.769697 L291.699092,41.9171717 L303.87771,41.9171717 L303.87771,30.6686869 L291.406337,30.6686869 L291.406337,25.1616162 C291.406337,20.1232323 294.041134,17.4868687 299.720586,17.4868687 C301.301464,17.4868687 302.940893,17.6040404 304.111914,17.779798 L304.111914,7.58585859 C302.296832,7.23434343 299.193626,7 296.324625,7 C282.857884,7 277.119881,12.6242424 277.119881,24.7515152 L277.119881,30.6686869 L268.62998,30.6686869 L268.62998,41.9171717 L277.119881,41.9171717 L277.119881,92.769697 L291.699092,92.769697 Z M336.549194,94 C339.476746,94 342.052992,93.7070707 343.750973,93.4727273 L343.750973,82.5171717 C342.755605,82.5757576 341.643135,82.7515152 340.23791,82.7515152 C334.909765,82.7515152 332.216417,80.8181818 332.216417,74.7252525 L332.216417,41.9171717 L343.750973,41.9171717 L343.750973,30.6686869 L332.216417,30.6686869 L332.216417,14.9090909 L317.403002,14.9090909 L317.403002,30.6686869 L308.620345,30.6686869 L308.620345,41.9171717 L317.403002,41.9171717 L317.403002,75.9555556 C317.403002,88.7272727 323.550862,94 336.549194,94 Z M377.944784,94 C393.168056,94 404,86.1494949 404,74.4323232 L404,74.3737374 C404,65.3515152 399.023161,60.3131313 386.200482,57.4424242 L375.836946,55.1575758 C369.396331,53.6929293 366.995738,51.3494949 366.995738,47.7757576 L366.995738,47.7171717 C366.995738,43.1474747 371.035761,40.159596 377.476376,40.159596 C384.268297,40.159596 388.249768,43.7919192 388.89383,48.7717172 L388.952381,49.240404 L402.536224,49.240404 L402.477673,48.5959596 C401.950713,37.8747475 392.933852,29.379798 377.476376,29.379798 C362.487308,29.379798 352.592181,37.0545455 352.592181,48.420202 L352.592181,48.4787879 C352.592181,57.6767677 358.564388,63.4767677 370.45025,66.1131313 L380.755234,68.3979798 C387.19585,69.8626263 389.362238,71.9717172 389.362238,75.7212121 L389.362238,75.779798 C389.362238,80.3494949 385.088012,83.220202 378.003335,83.220202 C370.625903,83.220202 366.585881,80.0565657 365.473411,74.7252525 L365.356309,74.1979798 L351.011303,74.1979798 L351.069854,74.7252525 C352.357977,86.2666667 361.667593,94 377.944784,94 Z" id="path-2"></path>
        <filter x="-1.3%" y="-2.3%" width="102.5%" height="109.2%" filterUnits="objectBoundingBox" id="filter-3">
            <feOffset dx="0" dy="2" in="SourceAlpha" result="shadowOffsetOuter1"></feOffset>
            <feGaussianBlur stdDeviation="1" in="shadowOffsetOuter1" result="shadowBlurOuter1"></feGaussianBlur>
            <feColorMatrix values="0 0 0 0 0   0 0 0 0 0   0 0 0 0 0  0 0 0 0.5 0" type="matrix" in="shadowBlurOuter1"></feColorMatrix>
        </filter>
    </defs>
    <g id="brand" stroke="none" stroke-width="1" fill="none" fill-rule="evenodd">
        <g id="logo" filter="url(#filter-1)" transform="translate(6.000000, 28.000000)" fill="#EEEEEE" fill-rule="nonzero">
            <path d="M7.9408867,57.0591133 L7.9408867,16.9704433 C7.9408867,14.777628 6.16325866,13 3.97044335,13 C1.77762804,13 0,14.777628 0,16.9704433 L0,61.0295567 C0,63.222372 1.77762804,65 3.97044335,65 L48.0295567,65 C50.222372,65 52,63.222372 52,61.0295567 C52,58.8367413 50.222372,57.0591133 48.0295567,57.0591133 L7.9408867,57.0591133 Z" id="Path-3"></path>
            <path d="M20.9408867,44.0591133 L20.9408867,3.97044335 C20.9408867,1.77762804 19.1632587,-3.55271368e-15 16.9704433,-3.55271368e-15 C14.777628,-3.55271368e-15 13,1.77762804 13,3.97044335 L13,48.0295567 C13,50.222372 14.777628,52 16.9704433,52 L61.0295567,52 C63.222372,52 65,50.222372 65,48.0295567 C65,45.8367413 63.222372,44.0591133 61.0295567,44.0591133 L20.9408867,44.0591133 Z" id="Path-3" transform="translate(39.000000, 26.000000) rotate(-180.000000) translate(-39.000000, -26.000000) "></path>
            <path d="M33.3291139,31.6708861 L33.3291139,20.164557 C33.3291139,18.9691052 32.3600088,18 31.164557,18 C29.9691052,18 29,18.9691052 29,20.164557 L29,33.835443 C29,35.0308948 29.9691052,36 31.164557,36 L44.835443,36 C46.0308948,36 47,35.0308948 47,33.835443 C47,32.6399912 46.0308948,31.6708861 44.835443,31.6708861 L33.3291139,31.6708861 Z" id="Path-3" transform="translate(38.000000, 27.000000) rotate(-180.000000) translate(-38.000000, -27.000000) "></path>
        </g>
        <g id="Drafts" fill-rule="nonzero">
            <use fill="black" fill-opacity="1" filter="url(#filter-3)" xlink:href="#path-2"></use>
            <use fill="#FFFFFF" xlink:href="#path-2"></use>
        </g>
        <path d="M432.21875,94 L441.734375,61.2617188 L441.847656,61.2617188 L451.363281,94 L456.177734,94 L467.307617,53.1337891 L461.983398,53.1337891 L453.742188,86.6933594 L453.628906,86.6933594 L444.368164,53.1337891 L439.213867,53.1337891 L429.953125,86.6933594 L429.839844,86.6933594 L421.598633,53.1337891 L416.274414,53.1337891 L427.404297,94 L432.21875,94 Z M476.964844,94 L476.964844,76.8095703 C476.964844,71.796875 479.995117,68.3417969 484.554688,68.3417969 C489.142578,68.3417969 491.861328,71.4853516 491.861328,76.8095703 L491.861328,94 L496.789062,94 L496.789062,75.9599609 C496.789062,68.8232422 492.512695,63.9804688 486.253906,63.9804688 C481.864258,63.9804688 478.664062,65.9345703 477.078125,69.2480469 L476.964844,69.2480469 L476.964844,53.1337891 L472.037109,53.1337891 L472.037109,94 L476.964844,94 Z M515.168945,94.5664062 C521.597656,94.5664062 526.412109,90.7148438 527.375,85.84375 L527.431641,85.5605469 L522.588867,85.5605469 L522.503906,85.8154297 C521.654297,88.3359375 519.020508,90.2050781 515.282227,90.2050781 C510.042969,90.2050781 506.701172,86.6650391 506.587891,80.6044922 L527.799805,80.6044922 L527.799805,78.7919922 C527.799805,69.9560547 522.900391,63.9804688 514.857422,63.9804688 C506.814453,63.9804688 501.603516,70.2392578 501.603516,79.3583984 L501.603516,79.3867188 C501.603516,88.6474609 506.701172,94.5664062 515.168945,94.5664062 Z M522.787109,76.7529297 L506.672852,76.7529297 C507.210938,71.2587891 510.552734,68.3417969 514.829102,68.3417969 C519.133789,68.3417969 522.305664,71.0322266 522.787109,76.7529297 Z M537.683594,94 L537.683594,75.5917969 C537.683594,71.4287109 540.175781,68.6816406 543.999023,68.6816406 C545.188477,68.6816406 546.236328,68.8232422 546.632812,68.9648438 L546.632812,64.1787109 C546.236328,64.1220703 545.5,63.9804688 544.650391,63.9804688 C541.195312,63.9804688 538.476562,66.0478516 537.513672,69.3046875 L537.400391,69.3046875 L537.400391,64.546875 L532.755859,64.546875 L532.755859,94 L537.683594,94 Z M561.331055,94.5664062 C567.759766,94.5664062 572.574219,90.7148438 573.537109,85.84375 L573.59375,85.5605469 L568.750977,85.5605469 L568.666016,85.8154297 C567.816406,88.3359375 565.182617,90.2050781 561.444336,90.2050781 C556.205078,90.2050781 552.863281,86.6650391 552.75,80.6044922 L573.961914,80.6044922 L573.961914,78.7919922 C573.961914,69.9560547 569.0625,63.9804688 561.019531,63.9804688 C552.976562,63.9804688 547.765625,70.2392578 547.765625,79.3583984 L547.765625,79.3867188 C547.765625,88.6474609 552.863281,94.5664062 561.331055,94.5664062 Z M568.949219,76.7529297 L552.834961,76.7529297 C553.373047,71.2587891 556.714844,68.3417969 560.991211,68.3417969 C565.295898,68.3417969 568.467773,71.0322266 568.949219,76.7529297 Z M607.011719,94 L607.011719,57.7216797 L619.897461,57.7216797 L619.897461,53.1337891 L589.02832,53.1337891 L589.02832,57.7216797 L601.914062,57.7216797 L601.914062,94 L607.011719,94 Z M628.988281,94.5664062 C635.416992,94.5664062 640.231445,90.7148438 641.194336,85.84375 L641.250977,85.5605469 L636.408203,85.5605469 L636.323242,85.8154297 C635.473633,88.3359375 632.839844,90.2050781 629.101562,90.2050781 C623.862305,90.2050781 620.520508,86.6650391 620.407227,80.6044922 L641.619141,80.6044922 L641.619141,78.7919922 C641.619141,69.9560547 636.719727,63.9804688 628.676758,63.9804688 C620.633789,63.9804688 615.422852,70.2392578 615.422852,79.3583984 L615.422852,79.3867188 C615.422852,88.6474609 620.520508,94.5664062 628.988281,94.5664062 Z M636.606445,76.7529297 L620.492188,76.7529297 C621.030273,71.2587891 624.37207,68.3417969 628.648438,68.3417969 C632.953125,68.3417969 636.125,71.0322266 636.606445,76.7529297 Z M649.180664,94 L656.289062,82.7851562 L656.402344,82.7851562 L663.454102,94 L668.919922,94 L659.121094,79.0751953 L669.061523,64.546875 L663.567383,64.546875 L656.572266,75.5917969 L656.458984,75.5917969 L649.378906,64.546875 L643.884766,64.546875 L653.740234,79.2734375 L643.714844,94 L649.180664,94 Z M682.740234,94.5664062 C683.703125,94.5664062 684.750977,94.453125 685.374023,94.3681641 L685.374023,90.375 C684.949219,90.4033203 684.382812,90.4882812 683.788086,90.4882812 C681.154297,90.4882812 679.766602,89.6103516 679.766602,86.4667969 L679.766602,68.625 L685.374023,68.625 L685.374023,64.546875 L679.766602,64.546875 L679.766602,56.5888672 L674.668945,56.5888672 L674.668945,64.546875 L670.364258,64.546875 L670.364258,68.625 L674.668945,68.625 L674.668945,86.4951172 C674.668945,92.1308594 677.331055,94.5664062 682.740234,94.5664062 Z M716.667969,94.6796875 C726.013672,94.6796875 731.762695,90.0917969 731.762695,82.8417969 L731.762695,82.8134766 C731.762695,76.5830078 728.250977,73.1845703 719.868164,71.34375 L715.336914,70.3525391 C710.012695,69.1914062 707.548828,67.0957031 707.548828,63.7539062 L707.548828,63.7255859 C707.548828,59.7890625 711.117188,57.1835938 716.583008,57.1552734 C721.765625,57.1552734 725.249023,59.6191406 725.87207,63.7822266 L725.928711,64.1787109 L731.026367,64.1787109 L730.998047,63.7539062 C730.544922,57.0703125 724.710938,52.4541016 716.724609,52.4541016 C708.313477,52.4541016 702.366211,57.1552734 702.337891,63.8671875 L702.337891,63.8955078 C702.337891,69.8710938 706.076172,73.4677734 714.0625,75.2236328 L718.59375,76.2148438 C724.201172,77.4609375 726.551758,79.4716797 726.551758,83.0683594 L726.551758,83.0966797 C726.551758,87.3164062 722.841797,89.9785156 716.951172,89.9785156 C711.032227,89.9785156 707.067383,87.4580078 706.472656,83.3515625 L706.416016,82.9550781 L701.318359,82.9550781 L701.34668,83.3515625 C701.856445,90.3466797 707.832031,94.6796875 716.667969,94.6796875 Z M746.517578,94.5664062 C747.480469,94.5664062 748.52832,94.453125 749.151367,94.3681641 L749.151367,90.375 C748.726562,90.4033203 748.160156,90.4882812 747.56543,90.4882812 C744.931641,90.4882812 743.543945,89.6103516 743.543945,86.4667969 L743.543945,68.625 L749.151367,68.625 L749.151367,64.546875 L743.543945,64.546875 L743.543945,56.5888672 L738.446289,56.5888672 L738.446289,64.546875 L734.141602,64.546875 L734.141602,68.625 L738.446289,68.625 L738.446289,86.4951172 C738.446289,92.1308594 741.108398,94.5664062 746.517578,94.5664062 Z M762.461914,94.5664062 C766.398438,94.5664062 769.938477,92.4423828 771.666016,89.2138672 L771.779297,89.2138672 L771.779297,94 L776.707031,94 L776.707031,73.6376953 C776.707031,67.7470703 772.345703,63.9804688 765.378906,63.9804688 C758.44043,63.9804688 754.220703,67.8886719 753.795898,72.7314453 L753.767578,73.0429688 L758.525391,73.0429688 L758.582031,72.7880859 C759.148438,70.1542969 761.527344,68.3417969 765.322266,68.3417969 C769.428711,68.3417969 771.779297,70.5224609 771.779297,74.1191406 L771.779297,76.5830078 L763.339844,77.0644531 C756.571289,77.4609375 752.663086,80.6044922 752.663086,85.6171875 L752.663086,85.6738281 C752.663086,91.0263672 756.599609,94.5664062 762.461914,94.5664062 Z M763.566406,90.2900391 C760.026367,90.2900391 757.704102,88.5058594 757.704102,85.6738281 L757.704102,85.6171875 C757.704102,82.8701172 759.969727,81.1142578 763.90625,80.8876953 L771.779297,80.40625 L771.779297,82.8134766 C771.779297,87.0898438 768.210938,90.2900391 763.566406,90.2900391 Z M787.893555,94 L787.893555,75.5917969 C787.893555,71.4287109 790.385742,68.6816406 794.208984,68.6816406 C795.398438,68.6816406 796.446289,68.8232422 796.842773,68.9648438 L796.842773,64.1787109 C796.446289,64.1220703 795.709961,63.9804688 794.860352,63.9804688 C791.405273,63.9804688 788.686523,66.0478516 787.723633,69.3046875 L787.610352,69.3046875 L787.610352,64.546875 L782.96582,64.546875 L782.96582,94 L787.893555,94 Z M810.408203,94.5664062 C811.371094,94.5664062 812.418945,94.453125 813.041992,94.3681641 L813.041992,90.375 C812.617188,90.4033203 812.050781,90.4882812 811.456055,90.4882812 C808.822266,90.4882812 807.43457,89.6103516 807.43457,86.4667969 L807.43457,68.625 L813.041992,68.625 L813.041992,64.546875 L807.43457,64.546875 L807.43457,56.5888672 L802.336914,56.5888672 L802.336914,64.546875 L798.032227,64.546875 L798.032227,68.625 L802.336914,68.625 L802.336914,86.4951172 C802.336914,92.1308594 804.999023,94.5664062 810.408203,94.5664062 Z M828.759766,94.5664062 C835.330078,94.5664062 840.201172,90.9414062 840.201172,85.7871094 L840.201172,85.7587891 C840.201172,81.5673828 838.048828,79.2167969 832.101562,77.7724609 L827.428711,76.6396484 C824.171875,75.8466797 822.84082,74.4589844 822.84082,72.4482422 L822.84082,72.4199219 C822.84082,69.8144531 825.049805,68.0869141 828.618164,68.0869141 C832.271484,68.0869141 834.452148,69.984375 834.848633,72.8447266 L834.876953,73.0429688 L839.578125,73.0429688 L839.549805,72.6748047 C839.181641,67.7470703 835.075195,63.9804688 828.618164,63.9804688 C822.246094,63.9804688 817.799805,67.5771484 817.799805,72.6464844 L817.799805,72.6748047 C817.799805,76.9228516 820.490234,79.5 826.041016,80.8310547 L830.713867,81.9638672 C834.055664,82.7851562 835.160156,83.9746094 835.160156,86.0986328 L835.160156,86.1269531 C835.160156,88.7890625 832.78125,90.4599609 828.788086,90.4599609 C824.766602,90.4599609 822.585938,88.7324219 821.991211,85.7871094 L821.93457,85.5039062 L817.006836,85.5039062 L817.035156,85.7587891 C817.629883,91.0263672 821.821289,94.5664062 828.759766,94.5664062 Z" id="WhereTextStarts" fill="#EEEEEE" fill-rule="nonzero"></path>
    </g>
</svg>